<svg width="32" height="32" viewBox="0 0 32 32" fill="none" xmlns="http://www.w3.org/2000/svg">
<rect width="32" height="32" rx="16" fill="url(#paint0_linear_2_41829)"/>
<path d="M17.8602 14.4909C17.8598 13.9075 18.3305 13.4294 18.9087 13.426C19.4814 13.4226 19.9736 13.9096 19.9718 14.4779C19.9701 15.0651 19.502 15.5306 18.9156 15.5291C18.3339 15.5269 17.8602 15.0609 17.8602 14.4909ZM13.0984 13.4269C12.5164 13.4313 12.0486 13.904 12.0486 14.4887C12.0486 15.0734 12.5237 15.5355 13.1122 15.5291C13.7077 15.5226 14.1542 15.0816 14.1517 14.5034C14.1492 13.9088 13.6732 13.4231 13.0984 13.4269ZM15.1659 20.5484C14.622 20.5484 14.082 20.7338 13.6371 21.0547C12.6266 20.8496 11.6705 20.5049 10.756 19.9977C9.59279 19.3527 8.63379 18.4838 8.01451 17.2949C7.13074 15.5968 7.25164 13.9343 8.30976 12.351C9.12913 11.1235 10.2744 10.2923 11.6229 9.71365C12.787 9.21528 13.9946 8.93388 15.2589 8.86354C15.5175 8.84968 15.7742 8.84268 16.0297 8.84268C17.3603 8.84268 18.6622 9.04185 19.9263 9.51343C21.2221 9.99782 22.3695 10.7222 23.272 11.7724C24.1617 12.8057 24.6759 14.0016 24.5581 15.4045C24.456 16.6171 23.9586 17.6544 23.1284 18.5313C22.85 18.8266 22.5498 19.1109 22.2248 19.3546C21.2569 20.0808 20.175 20.5722 19.0139 20.9002C18.6314 20.6823 18.1895 20.5624 17.713 20.5535C17.3851 20.5486 17.0295 20.5455 16.5925 20.5455C16.3537 20.5455 16.1139 20.5466 15.8752 20.5466C15.6384 20.5475 15.4025 20.5486 15.1657 20.5486L15.1659 20.5484ZM13.869 18.025C14.5734 18.025 15.2788 18.0171 15.9832 18.0171H17.7627C18.1193 18.0171 18.478 18.02 18.8357 18.02C19.0586 18.02 19.2826 18.018 19.5065 18.015C20.6954 17.9981 21.6614 17.4948 22.3558 16.5547C23.0522 15.6125 23.2485 14.5415 22.866 13.4091C22.3478 11.8735 21.0252 10.96 19.5311 10.9461C18.5384 10.9362 17.5457 10.9333 16.5529 10.9333C15.1986 10.9333 13.8432 10.9382 12.4899 10.9412C11.5555 10.9432 10.7372 11.289 10.0803 11.9251C8.90726 13.0595 8.54866 14.7616 9.48496 16.2864C10.1725 17.4079 11.2009 17.9805 12.5087 18.0113C12.9625 18.0212 13.4152 18.0252 13.869 18.0252V18.025ZM27.3225 14.8641C27.0402 14.8204 27.0424 14.8199 26.9884 14.5466C26.6136 12.6538 25.7653 10.9674 24.3914 9.5232C24.0076 9.11998 23.5732 8.7532 23.1275 8.40779C21.2433 6.94988 19.0637 6.16457 16.618 6.01939C15.5996 5.95867 14.5903 6.04156 13.5962 6.25406C11.1455 6.77909 9.08254 7.90532 7.45687 9.69821C6.56545 10.6808 5.89641 11.7816 5.44212 12.9956C5.2283 13.5666 5.07467 14.1513 4.96803 14.7472C4.95787 14.8039 4.94823 14.8407 4.86931 14.8447C4.32671 14.8741 4.00744 15.1554 4.00348 15.6572C3.99438 16.6773 4.00454 17.6974 4.01774 18.7181C4.0217 19.0538 4.28817 19.3305 4.64203 19.4036C4.7005 19.416 4.76174 19.4257 4.82126 19.4257C5.30499 19.4274 5.78858 19.4286 6.27231 19.4286C6.46395 19.4286 6.65506 19.4286 6.84671 19.428C6.97658 19.428 7.21019 19.394 7.21415 19.2233C7.2164 19.1337 7.16426 19.0532 7.11543 18.9778C6.38172 17.8472 5.98471 16.4824 6.06918 15.1316C6.139 14.0247 6.5211 12.9435 7.2061 11.9182C7.77483 11.0648 8.50642 10.3459 9.33714 9.74876C11.7471 8.0154 14.8436 7.19537 17.7866 7.68807C19.7428 8.01527 21.6419 8.82328 23.1672 10.1014C23.593 10.458 23.9838 10.8561 24.3307 11.29C26.017 13.3959 26.6023 16.577 24.9317 18.882C24.8682 18.9694 24.7991 19.0606 24.7889 19.1683C24.7691 19.3769 24.9914 19.4234 25.1529 19.4268C25.1773 19.4274 25.2023 19.4279 25.2267 19.4286H25.7758C25.7375 19.4993 25.6982 19.5694 25.6575 19.6383C25.1141 20.5602 24.3652 21.3157 23.3723 21.8655C22.821 22.1711 22.2415 22.4159 21.6223 22.5569C21.4726 22.5909 21.3214 22.6206 21.1667 22.6416C21.0704 22.6551 20.9739 22.6656 20.8773 22.6745C20.827 22.6791 20.7767 22.6821 20.7263 22.6857C20.6807 22.689 20.6351 22.6927 20.5895 22.6952C20.5301 22.6985 20.4706 22.7005 20.4112 22.7026C20.3741 22.7039 20.3369 22.7055 20.2997 22.7064C20.2363 22.708 20.173 22.7088 20.1096 22.7094C20.0769 22.7097 20.0442 22.7102 20.0114 22.7104C19.9564 22.7105 19.9014 22.7104 19.8463 22.7101C19.7304 22.7096 19.6146 22.7085 19.4987 22.7069C19.3081 22.7044 19.1176 22.7013 18.9273 22.7007C18.8983 22.7007 18.8608 22.6743 18.8358 22.6456C18.8281 22.6367 18.8213 22.6275 18.8167 22.6188C18.5839 22.1868 18.2044 21.9491 17.6893 21.9401C17.4938 21.9369 17.2983 21.9351 17.1029 21.9338C17.0068 21.9331 16.9106 21.9331 16.8144 21.9328C16.7404 21.9327 16.6665 21.9322 16.5925 21.9322C16.5642 21.9322 16.5359 21.9323 16.5075 21.9323C16.3067 21.9324 16.1059 21.933 15.9051 21.9336C15.6587 21.9344 15.4123 21.9352 15.1659 21.9352C14.9843 21.9352 14.8026 21.9817 14.6371 22.0632C14.4906 22.1354 14.3572 22.2353 14.2476 22.3559C13.9966 22.6321 13.8725 23.0159 14.0143 23.4193C14.0324 23.471 14.0549 23.523 14.082 23.5751C14.1137 23.6361 14.1493 23.6919 14.1871 23.7449C14.3511 23.975 14.5718 24.1288 14.8473 24.1982C14.956 24.2258 15.0728 24.2409 15.1985 24.2419C15.2408 24.2423 15.2831 24.2422 15.3254 24.2426C15.6467 24.2456 15.9678 24.2469 16.2891 24.2472C16.7383 24.2477 17.1875 24.2469 17.6366 24.2447C18.055 24.2426 18.3783 24.0932 18.6173 23.8237C18.6879 23.7442 18.7515 23.6547 18.8077 23.5549C18.8215 23.5301 18.8357 23.5126 18.8523 23.4995C18.8551 23.4974 18.8574 23.4944 18.8603 23.4925C18.8662 23.4887 18.8736 23.4867 18.8805 23.4841C18.8856 23.4821 18.89 23.4794 18.8956 23.4781C18.9042 23.4761 18.9148 23.4757 18.9251 23.4751C18.931 23.4747 18.9362 23.4735 18.9428 23.4736H18.9445C19.1233 23.4751 19.3018 23.4772 19.4805 23.4784C19.4947 23.4784 19.509 23.4787 19.5231 23.4787C19.5706 23.4789 19.6181 23.4796 19.6658 23.4796C19.7765 23.4796 19.8871 23.4776 19.9977 23.4757C20.0266 23.4752 20.0555 23.4757 20.0846 23.4752C20.1874 23.4731 20.2902 23.4699 20.393 23.4661C20.6043 23.4586 20.8154 23.4466 21.0252 23.4265C21.0343 23.4256 21.0434 23.4251 21.0524 23.4241H21.0525C21.0525 23.4241 21.0525 23.4241 21.0527 23.4241C21.0635 23.4231 21.0743 23.4212 21.0851 23.4202C21.7047 23.3547 22.2914 23.1732 22.868 22.961C23.6545 22.6708 24.3465 22.2577 24.9485 21.7232C25.0782 21.608 25.2053 21.4892 25.3266 21.3624C25.3967 21.2893 25.4644 21.215 25.5308 21.14C25.5363 21.1337 25.5423 21.1277 25.5478 21.1214C25.5501 21.1189 25.5522 21.1161 25.5544 21.1136C26.0074 20.5966 26.371 20.035 26.6463 19.4284H27.1216C27.129 19.4284 27.1357 19.4279 27.1431 19.4279C27.6325 19.4188 27.9778 19.1223 27.984 18.671C27.9988 17.6469 28.0016 16.6223 27.9993 15.5982C27.9983 15.2342 27.6948 14.9218 27.3222 14.8638L27.3225 14.8641Z" fill="white"/>
<defs>
<linearGradient id="paint0_linear_2_41829" x1="0" y1="16" x2="32" y2="16" gradientUnits="userSpaceOnUse">
<stop stop-color="#D7AB07"/>
<stop offset="1" stop-color="#E86555"/>
</linearGradient>
</defs>
</svg>
