<svg width="441" height="108" viewBox="0 0 441 108" fill="none" xmlns="http://www.w3.org/2000/svg">
<path d="M210.287 62.5394H175.843C176.65 68.7282 181.045 72.6754 187.683 72.6754C192.437 72.6754 195.935 70.6122 197.819 67.2938L208.583 72.4066C205.623 79.5826 197.55 84.3362 187.504 84.3362C171.986 84.3362 161.85 72.8546 161.85 58.6826C161.85 44.5106 172.614 33.209 186.607 33.209C200.6 33.209 210.915 43.793 210.915 57.3378C210.915 59.3114 210.736 61.1946 210.287 62.5402V62.5394ZM196.652 52.673C196.114 47.4706 192.168 43.9722 186.606 43.9722C181.045 43.9722 177.457 47.0218 176.112 52.673H196.652Z" fill="white"/>
<path d="M259.081 34.2849V83.2593H246.524V77.3393C244.012 81.9137 239.168 84.3361 233.069 84.3361C221.857 84.3361 214.232 76.0841 214.232 64.0649V34.2857H227.687V62.8993C227.687 68.5505 231.364 72.2281 236.656 72.2281C241.948 72.2281 245.626 68.5505 245.626 62.8993V34.2857H259.08L259.081 34.2849Z" fill="white"/>
<path d="M264.193 70.2529L274.149 65.5889C276.751 71.0609 281.146 74.0209 286.707 74.0209C290.923 74.0209 293.613 72.3169 293.613 69.6257C293.613 66.3969 289.667 65.4097 287.962 64.9617L279.351 62.7193C270.471 60.3873 266.165 55.1849 266.165 48.4577C266.165 39.3985 273.969 33.2097 285.45 33.2097C295.496 33.2097 303.479 38.0529 306.619 46.0361L296.572 50.7001C294.958 46.4841 290.742 43.9729 285.45 43.9729C281.503 43.9729 279.171 45.4977 279.171 48.0097C279.171 50.9697 282.579 51.8665 284.194 52.3153L293.253 54.7369C301.954 57.0689 306.618 62.0921 306.618 69.0881C306.618 78.1473 298.455 84.3369 286.705 84.3369C276.031 84.3369 267.241 79.1345 264.191 70.2545L264.193 70.2529Z" fill="white"/>
<path d="M353.53 50.9681V83.2593H340.972V78.7745C337.295 82.6313 332.81 84.3361 327.159 84.3361C316.036 84.3361 309.04 78.0577 309.04 69.8953C309.04 62.6297 314.78 57.8761 324.736 55.8129L340.075 52.5841V50.9697C340.075 47.2921 337.025 44.8705 332.54 44.8705C327.787 44.8705 323.84 47.6513 322.404 52.0465L310.833 46.4849C313.704 38.4121 322.135 33.2097 332.54 33.2097C345.008 33.2097 353.528 40.4753 353.528 50.9697L353.53 50.9681ZM340.076 64.6017V62.2697L327.159 65.1401C324.378 65.7681 322.943 67.4721 322.943 69.7145C322.943 72.6745 325.364 74.4681 329.222 74.4681C335.321 74.4681 340.076 70.0729 340.076 64.6009V64.6017Z" fill="white"/>
<path d="M364.382 65.5889V45.9449H355.951V34.2841H356.579C361.602 34.2841 364.383 31.7729 364.383 26.7497V19.5737H377.837V34.2841H389.319V45.9449H377.837V65.5889C377.837 70.6121 380.529 73.0337 386.179 73.0337C386.986 73.0337 388.063 72.9441 389.318 72.7649V83.3489C387.525 83.6177 385.102 83.7977 383.039 83.7977C371.199 83.7977 364.382 77.0705 364.382 65.5889Z" fill="white"/>
<path d="M440.176 62.5393H405.732C406.539 68.7281 410.934 72.6753 417.572 72.6753C422.325 72.6753 425.824 70.6121 427.708 67.2937L438.472 72.4065C435.512 79.5825 427.439 84.3361 417.392 84.3361C401.875 84.3361 391.739 72.8545 391.739 58.6825C391.739 44.5105 402.503 33.2089 416.496 33.2089C430.488 33.2089 440.804 43.7929 440.804 57.3377C440.804 59.3113 440.624 61.1945 440.176 62.5401V62.5393ZM426.542 52.6729C426.004 47.4705 422.057 43.9721 416.496 43.9721C410.934 43.9721 407.347 47.0217 406.001 52.6729H426.542Z" fill="white"/>
<path d="M81.9109 50.18C81.9085 46.732 84.6901 43.9072 88.1069 43.8872C91.4917 43.8664 94.3997 46.7448 94.3901 50.104C94.3797 53.5744 91.6133 56.3256 88.1477 56.316C84.7101 56.3032 81.9109 53.5496 81.9109 50.1808V50.18ZM53.7693 43.892C50.3293 43.9176 47.5653 46.712 47.5653 50.1672C47.5653 53.6224 50.3725 56.3536 53.8501 56.3152C57.3693 56.2768 60.0085 53.6712 59.9933 50.2536C59.9781 46.74 57.1661 43.8688 53.7693 43.892ZM65.9877 85.9792C62.7733 85.9792 59.5821 87.0744 56.9533 88.9712C50.9813 87.7592 45.3309 85.7216 39.9269 82.724C33.0525 78.912 27.3845 73.7776 23.7253 66.7512C18.5029 56.7152 19.2173 46.8904 25.4701 37.5336C30.3117 30.2792 37.0805 25.3664 45.0501 21.9472C51.9301 19.0016 59.0677 17.3392 66.5381 16.9232C68.0669 16.8408 69.5829 16.8 71.0933 16.8C78.9565 16.8 86.6501 17.9768 94.1221 20.764C101.78 23.6272 108.56 27.9072 113.895 34.1136C119.153 40.2208 122.192 47.288 121.495 55.5792C120.892 62.7456 117.952 68.876 113.046 74.0584C111.4 75.8032 109.626 77.4832 107.706 78.924C101.985 83.216 95.5917 86.12 88.7293 88.0576C86.4693 86.7696 83.8573 86.0608 81.0413 86.008C79.1029 85.9792 77.0013 85.9608 74.4189 85.9608C73.0077 85.9608 71.5909 85.9672 70.1797 85.9672C68.7805 85.9728 67.3869 85.9792 65.9869 85.9792H65.9877ZM58.3237 71.0656C62.4869 71.0656 66.6557 71.0192 70.8189 71.0192H81.3349C83.4429 71.0192 85.5621 71.0368 87.6765 71.0368C88.9941 71.0368 90.3173 71.0248 91.6405 71.0072C98.6669 70.908 104.376 67.9336 108.48 62.3768C112.596 56.808 113.756 50.4792 111.496 43.7864C108.433 34.7112 100.616 29.312 91.7869 29.2304C85.9197 29.172 80.0533 29.1544 74.1861 29.1544C66.1821 29.1544 58.1725 29.1832 50.1741 29.2008C44.6525 29.2128 39.8165 31.256 35.9341 35.0152C29.0013 41.7192 26.8821 51.7784 32.4149 60.7896C36.4781 67.4176 42.5557 70.8024 50.2853 70.9832C52.9669 71.0416 55.6429 71.0648 58.3245 71.0648L58.3237 71.0656ZM137.832 52.3856C136.164 52.1272 136.177 52.124 135.859 50.5088C133.644 39.3224 128.631 29.356 120.511 20.8208C118.242 18.4384 115.675 16.2696 113.041 14.2288C101.904 5.61363 89.0229 0.972025 74.5693 0.114425C68.5509 -0.244775 62.5853 0.244825 56.7109 1.50163C42.2277 4.60483 30.0357 11.26 20.4285 21.856C15.1605 27.6632 11.2061 34.168 8.52207 41.3424C7.25887 44.7168 6.35087 48.172 5.72047 51.6936C5.66047 52.0288 5.60287 52.2464 5.13727 52.2704C1.93007 52.4448 0.043666 54.1064 0.020466 57.072C-0.033134 63.1008 0.026866 69.1296 0.104466 75.1616C0.127666 77.1456 1.70287 78.7808 3.79407 79.2136C4.13967 79.2872 4.50127 79.344 4.85327 79.344C7.71167 79.3544 10.5701 79.3608 13.4285 79.3608C14.5613 79.3608 15.6909 79.3608 16.8229 79.3576C17.5901 79.3576 18.9709 79.1568 18.9949 78.148C19.0085 77.6184 18.6997 77.1424 18.4117 76.6968C14.0749 70.0144 11.7293 61.9488 12.2285 53.9664C12.6405 47.4248 14.8997 41.0344 18.9477 34.9752C22.3093 29.932 26.6317 25.6824 31.5413 22.1536C45.7829 11.9096 64.0837 7.06402 81.4765 9.97523C93.0381 11.9088 104.26 16.684 113.276 24.2376C115.792 26.3456 118.101 28.6976 120.152 31.2616C130.118 43.7072 133.576 62.5072 123.704 76.1296C123.328 76.6456 122.92 77.1848 122.86 77.8216C122.742 79.0544 124.056 79.3296 125.011 79.3496C125.155 79.3528 125.303 79.356 125.447 79.36H128.692C128.465 79.7784 128.232 80.192 127.992 80.5992C124.781 86.048 120.355 90.5128 114.487 93.7624C111.229 95.568 107.804 97.0152 104.144 97.848C103.26 98.0488 102.366 98.2248 101.452 98.3488C100.883 98.428 100.313 98.4904 99.7421 98.5432C99.4453 98.5704 99.1477 98.588 98.8501 98.6096C98.5805 98.6288 98.3117 98.6512 98.0421 98.6656C97.6909 98.6848 97.3397 98.6968 96.9885 98.7088C96.7693 98.7168 96.5493 98.7264 96.3293 98.732C95.9549 98.7408 95.5805 98.7464 95.2061 98.7504C95.0125 98.752 94.8189 98.7552 94.6253 98.756C94.2997 98.7568 93.9749 98.756 93.6493 98.7544C92.9645 98.7512 92.2789 98.7456 91.5949 98.736C90.4685 98.7208 89.3429 98.7024 88.2181 98.6992C88.0461 98.6992 87.8253 98.5432 87.6781 98.3736C87.6325 98.3208 87.5925 98.2664 87.5645 98.2152C86.1885 95.6624 83.9461 94.2576 80.9013 94.204C79.7461 94.1848 78.5909 94.1736 77.4357 94.1672C76.8677 94.1632 76.2989 94.1632 75.7309 94.1616C75.2941 94.1608 74.8573 94.1576 74.4197 94.1576C74.2525 94.1576 74.0853 94.1584 73.9173 94.1584C72.7309 94.1592 71.5437 94.1624 70.3573 94.1656C68.9013 94.1704 67.4445 94.1744 65.9885 94.1744C64.9157 94.1744 63.8421 94.4488 62.8637 94.9312C61.9981 95.3576 61.2093 95.9488 60.5621 96.66C59.0781 98.2928 58.3453 100.561 59.1829 102.945C59.2901 103.25 59.4229 103.558 59.5829 103.866C59.7701 104.226 59.9805 104.556 60.2037 104.869C61.1733 106.229 62.4773 107.138 64.1053 107.549C64.7477 107.711 65.4389 107.8 66.1813 107.807C66.4317 107.81 66.6813 107.809 66.9317 107.811C68.8301 107.83 70.7285 107.837 72.6269 107.838C75.2821 107.842 77.9365 107.837 80.5909 107.824C83.0637 107.811 84.9741 106.928 86.3861 105.336C86.8037 104.866 87.1797 104.338 87.5117 103.748C87.5925 103.601 87.6773 103.498 87.7749 103.421C87.7909 103.408 87.8045 103.39 87.8221 103.38C87.8573 103.358 87.9005 103.346 87.9413 103.33C87.9717 103.319 87.9973 103.303 88.0317 103.295C88.0829 103.283 88.1453 103.281 88.2053 103.278C88.2405 103.275 88.2701 103.269 88.3093 103.269H88.3197C89.3773 103.278 90.4317 103.29 91.4869 103.297C91.5709 103.297 91.6549 103.298 91.7389 103.298C92.0197 103.3 92.3005 103.303 92.5821 103.303C93.2365 103.303 93.8901 103.292 94.5445 103.28C94.7157 103.277 94.8861 103.28 95.0573 103.277C95.6645 103.264 96.2725 103.246 96.8805 103.223C98.1293 103.178 99.3765 103.107 100.616 102.989C100.67 102.984 100.724 102.98 100.777 102.975H100.778C100.778 102.975 100.778 102.975 100.779 102.975C100.843 102.969 100.907 102.958 100.971 102.951C104.632 102.564 108.1 101.492 111.508 100.238C116.156 98.5224 120.245 96.0816 123.804 92.9224C124.571 92.2416 125.322 91.5392 126.039 90.7904C126.452 90.3584 126.853 89.9192 127.245 89.476C127.278 89.4392 127.313 89.4032 127.346 89.3664C127.36 89.3512 127.372 89.3352 127.385 89.32C130.062 86.2648 132.211 82.9456 133.838 79.3608H136.647C136.69 79.3608 136.73 79.3576 136.774 79.3576C139.666 79.304 141.707 77.5512 141.744 74.884C141.831 68.832 141.848 62.776 141.834 56.724C141.828 54.5728 140.035 52.7264 137.833 52.384L137.832 52.3856Z" fill="url(#paint0_linear_2_41782)"/>
<defs>
<linearGradient id="paint0_linear_2_41782" x1="0" y1="53.9195" x2="141.838" y2="53.9195" gradientUnits="userSpaceOnUse">
<stop stop-color="#D7AB07"/>
<stop offset="1" stop-color="#E86555"/>
</linearGradient>
</defs>
</svg>
