<svg width="441" height="108" viewBox="0 0 441 108" fill="none" xmlns="http://www.w3.org/2000/svg">
<g clip-path="url(#clip0_2_41801)">
<path d="M210.287 62.5391H175.843C176.65 68.7279 181.045 72.6751 187.683 72.6751C192.437 72.6751 195.935 70.6119 197.819 67.2935L208.583 72.4063C205.623 79.5823 197.55 84.3359 187.504 84.3359C171.986 84.3359 161.85 72.8543 161.85 58.6823C161.85 44.5103 172.614 33.2087 186.607 33.2087C200.6 33.2087 210.915 43.7927 210.915 57.3375C210.915 59.3111 210.736 61.1943 210.287 62.5399V62.5391ZM196.652 52.6727C196.114 47.4703 192.168 43.9719 186.606 43.9719C181.045 43.9719 177.457 47.0215 176.112 52.6727H196.652Z" fill="#0A0A0A"/>
<path d="M259.081 34.2847V83.2591H246.524V77.3391C244.012 81.9135 239.168 84.3359 233.069 84.3359C221.857 84.3359 214.232 76.0839 214.232 64.0647V34.2855H227.687V62.8991C227.687 68.5503 231.364 72.2279 236.656 72.2279C241.948 72.2279 245.626 68.5503 245.626 62.8991V34.2855H259.08L259.081 34.2847Z" fill="#0A0A0A"/>
<path d="M264.193 70.2527L274.149 65.5887C276.751 71.0607 281.146 74.0207 286.707 74.0207C290.923 74.0207 293.613 72.3167 293.613 69.6255C293.613 66.3967 289.667 65.4095 287.962 64.9615L279.351 62.7191C270.471 60.3871 266.165 55.1847 266.165 48.4575C266.165 39.3983 273.969 33.2095 285.45 33.2095C295.496 33.2095 303.479 38.0527 306.619 46.0359L296.572 50.6999C294.958 46.4839 290.742 43.9727 285.45 43.9727C281.503 43.9727 279.171 45.4975 279.171 48.0095C279.171 50.9695 282.579 51.8663 284.194 52.3151L293.253 54.7367C301.954 57.0687 306.618 62.0919 306.618 69.0879C306.618 78.1471 298.455 84.3367 286.705 84.3367C276.031 84.3367 267.241 79.1343 264.191 70.2543L264.193 70.2527Z" fill="#0A0A0A"/>
<path d="M353.53 50.9679V83.2591H340.972V78.7743C337.295 82.6311 332.81 84.3359 327.159 84.3359C316.036 84.3359 309.04 78.0575 309.04 69.8951C309.04 62.6295 314.78 57.8759 324.736 55.8127L340.075 52.5839V50.9695C340.075 47.2919 337.025 44.8703 332.54 44.8703C327.787 44.8703 323.84 47.6511 322.404 52.0463L310.833 46.4847C313.704 38.4119 322.135 33.2095 332.54 33.2095C345.008 33.2095 353.528 40.4751 353.528 50.9695L353.53 50.9679ZM340.076 64.6015V62.2695L327.159 65.1399C324.378 65.7679 322.943 67.4719 322.943 69.7143C322.943 72.6743 325.364 74.4679 329.222 74.4679C335.321 74.4679 340.076 70.0727 340.076 64.6007V64.6015Z" fill="#0A0A0A"/>
<path d="M364.382 65.5887V45.9447H355.951V34.2839H356.579C361.602 34.2839 364.383 31.7727 364.383 26.7495V19.5735H377.837V34.2839H389.319V45.9447H377.837V65.5887C377.837 70.6119 380.529 73.0335 386.179 73.0335C386.986 73.0335 388.063 72.9439 389.318 72.7647V83.3487C387.525 83.6175 385.102 83.7975 383.039 83.7975C371.199 83.7975 364.382 77.0703 364.382 65.5887Z" fill="#0A0A0A"/>
<path d="M440.176 62.5391H405.732C406.539 68.7279 410.934 72.6751 417.572 72.6751C422.325 72.6751 425.824 70.6119 427.708 67.2935L438.472 72.4063C435.512 79.5823 427.439 84.3359 417.392 84.3359C401.875 84.3359 391.739 72.8543 391.739 58.6823C391.739 44.5103 402.503 33.2087 416.496 33.2087C430.488 33.2087 440.804 43.7927 440.804 57.3375C440.804 59.3111 440.624 61.1943 440.176 62.5399V62.5391ZM426.542 52.6727C426.004 47.4703 422.057 43.9719 416.496 43.9719C410.934 43.9719 407.347 47.0215 406.001 52.6727H426.542Z" fill="#0A0A0A"/>
<path d="M81.9097 50.1799C81.9073 46.7319 84.6889 43.9071 88.1057 43.8871C91.4904 43.8663 94.3985 46.7447 94.3889 50.1039C94.3785 53.5743 91.6121 56.3255 88.1465 56.3159C84.7089 56.3031 81.9097 53.5495 81.9097 50.1807V50.1799ZM53.7681 43.8919C50.328 43.9175 47.5641 46.7119 47.5641 50.1671C47.5641 53.6223 50.3713 56.3535 53.8489 56.3151C57.3681 56.2767 60.0073 53.6711 59.9921 50.2535C59.9768 46.7399 57.1649 43.8687 53.7681 43.8919ZM65.9865 85.9791C62.772 85.9791 59.5808 87.0743 56.952 88.9711C50.98 87.7591 45.3296 85.7215 39.9256 82.7239C33.0512 78.9119 27.3832 73.7775 23.724 66.7511C18.5016 56.7151 19.216 46.8903 25.4688 37.5335C30.3104 30.2791 37.0793 25.3663 45.0489 21.9471C51.9289 19.0015 59.0664 17.3391 66.5368 16.9231C68.0657 16.8407 69.5816 16.7999 71.092 16.7999C78.9553 16.7999 86.6489 17.9767 94.1209 20.7639C101.779 23.6271 108.559 27.9071 113.894 34.1135C119.152 40.2207 122.19 47.2879 121.494 55.5791C120.89 62.7455 117.951 68.8759 113.045 74.0583C111.399 75.8031 109.625 77.4831 107.705 78.9239C101.984 83.2159 95.5905 86.1199 88.7281 88.0575C86.4681 86.7695 83.8561 86.0607 81.0401 86.0079C79.1017 85.9791 77.0001 85.9607 74.4176 85.9607C73.0065 85.9607 71.5897 85.9671 70.1785 85.9671C68.7793 85.9727 67.3857 85.9791 65.9857 85.9791H65.9865ZM58.3224 71.0655C62.4856 71.0655 66.6544 71.0191 70.8176 71.0191H81.3337C83.4417 71.0191 85.5609 71.0367 87.6752 71.0367C88.9929 71.0367 90.3161 71.0247 91.6393 71.0071C98.6657 70.9079 104.374 67.9335 108.478 62.3767C112.594 56.8079 113.754 50.4791 111.494 43.7863C108.432 34.7111 100.615 29.3119 91.7857 29.2303C85.9184 29.1719 80.0521 29.1543 74.1849 29.1543C66.1809 29.1543 58.1712 29.1831 50.1729 29.2007C44.6512 29.2127 39.8152 31.2559 35.9328 35.0151C29 41.7191 26.8808 51.7783 32.4136 60.7895C36.4768 67.4175 42.5545 70.8023 50.284 70.9831C52.9657 71.0415 55.6417 71.0647 58.3232 71.0647L58.3224 71.0655ZM137.831 52.3855C136.162 52.1271 136.176 52.1239 135.858 50.5087C133.642 39.3223 128.63 29.3559 120.51 20.8207C118.241 18.4383 115.674 16.2695 113.04 14.2287C101.903 5.6135 89.0217 0.971903 74.5681 0.114303C68.5497 -0.244897 62.5841 0.244703 56.7097 1.5015C42.2265 4.6047 30.0344 11.2599 20.4272 21.8559C15.1592 27.6631 11.2048 34.1679 8.52085 41.3423C7.25765 44.7167 6.34965 48.1719 5.71925 51.6935C5.65925 52.0287 5.60165 52.2463 5.13605 52.2703C1.92885 52.4447 0.0424453 54.1063 0.0192453 57.0719C-0.0343547 63.1007 0.0256453 69.1295 0.103245 75.1615C0.126445 77.1455 1.70165 78.7807 3.79285 79.2135C4.13845 79.2871 4.50005 79.3439 4.85205 79.3439C7.71045 79.3543 10.5688 79.3607 13.4272 79.3607C14.56 79.3607 15.6896 79.3607 16.8216 79.3575C17.5888 79.3575 18.9696 79.1567 18.9936 78.1479C19.0072 77.6183 18.6984 77.1423 18.4104 76.6967C14.0736 70.0143 11.728 61.9487 12.2272 53.9663C12.6392 47.4247 14.8984 41.0343 18.9464 34.9751C22.308 29.9319 26.6304 25.6823 31.54 22.1535C45.7816 11.9095 64.0825 7.0639 81.4753 9.9751C93.0369 11.9087 104.259 16.6839 113.274 24.2375C115.791 26.3455 118.1 28.6975 120.15 31.2615C130.117 43.7071 133.575 62.5071 123.702 76.1295C123.327 76.6455 122.918 77.1847 122.858 77.8215C122.741 79.0543 124.054 79.3295 125.01 79.3495C125.154 79.3527 125.302 79.3559 125.446 79.3599H128.69C128.464 79.7783 128.231 80.1919 127.991 80.5991C124.78 86.0479 120.354 90.5127 114.486 93.7623C111.228 95.5679 107.802 97.0151 104.143 97.8479C103.259 98.0487 102.365 98.2247 101.451 98.3487C100.882 98.4279 100.312 98.4903 99.7409 98.5431C99.4441 98.5703 99.1465 98.5879 98.8489 98.6095C98.5793 98.6287 98.3105 98.6511 98.0409 98.6655C97.6897 98.6847 97.3385 98.6967 96.9873 98.7087C96.7681 98.7167 96.548 98.7263 96.3281 98.7319C95.9537 98.7407 95.5793 98.7463 95.2048 98.7503C95.0113 98.7519 94.8176 98.7551 94.624 98.7559C94.2984 98.7567 93.9737 98.7559 93.6481 98.7543C92.9633 98.7511 92.2776 98.7455 91.5937 98.7359C90.4672 98.7207 89.3417 98.7023 88.2169 98.6991C88.0449 98.6991 87.8241 98.5431 87.6768 98.3735C87.6312 98.3207 87.5913 98.2663 87.5633 98.2151C86.1873 95.6623 83.9449 94.2575 80.9001 94.2039C79.7449 94.1847 78.5897 94.1735 77.4345 94.1671C76.8665 94.1631 76.2977 94.1631 75.7297 94.1615C75.2929 94.1607 74.8561 94.1575 74.4184 94.1575C74.2513 94.1575 74.0841 94.1583 73.9161 94.1583C72.7297 94.1591 71.5424 94.1623 70.356 94.1655C68.9 94.1703 67.4433 94.1743 65.9873 94.1743C64.9145 94.1743 63.8409 94.4487 62.8624 94.9311C61.9968 95.3575 61.2081 95.9487 60.5609 96.6599C59.0769 98.2927 58.3441 100.561 59.1816 102.945C59.2888 103.25 59.4216 103.557 59.5816 103.865C59.7688 104.225 59.9793 104.556 60.2024 104.869C61.1721 106.229 62.4761 107.137 64.104 107.549C64.7465 107.711 65.4377 107.8 66.1801 107.807C66.4305 107.809 66.6801 107.809 66.9305 107.811C68.8289 107.829 70.7273 107.837 72.6257 107.838C75.2809 107.841 77.9353 107.837 80.5897 107.824C83.0625 107.811 84.9728 106.928 86.3848 105.336C86.8025 104.866 87.1785 104.338 87.5105 103.748C87.5913 103.601 87.676 103.497 87.7737 103.421C87.7896 103.408 87.8033 103.39 87.8209 103.38C87.8561 103.357 87.8993 103.345 87.9401 103.33C87.9705 103.319 87.9961 103.303 88.0305 103.295C88.0817 103.283 88.1441 103.281 88.204 103.277C88.2393 103.275 88.2689 103.269 88.3081 103.269H88.3185C89.3761 103.277 90.4305 103.289 91.4856 103.297C91.5696 103.297 91.6537 103.298 91.7377 103.298C92.0185 103.3 92.2993 103.303 92.5809 103.303C93.2353 103.303 93.8889 103.292 94.5433 103.28C94.7145 103.277 94.8848 103.28 95.0561 103.277C95.6633 103.264 96.2713 103.246 96.8793 103.223C98.1281 103.178 99.3753 103.107 100.615 102.989C100.669 102.984 100.722 102.98 100.776 102.975H100.777C100.777 102.975 100.777 102.975 100.778 102.975C100.842 102.969 100.906 102.958 100.97 102.951C104.631 102.564 108.098 101.492 111.506 100.237C116.154 98.5223 120.244 96.0815 123.802 92.9223C124.57 92.2415 125.321 91.5391 126.038 90.7903C126.451 90.3583 126.852 89.9191 127.244 89.4759C127.277 89.4391 127.312 89.4031 127.345 89.3663C127.358 89.3511 127.37 89.3351 127.384 89.3199C130.061 86.2647 132.21 82.9455 133.837 79.3607H136.646C136.689 79.3607 136.729 79.3575 136.773 79.3575C139.665 79.3039 141.706 77.5511 141.742 74.8839C141.83 68.8319 141.846 62.7759 141.833 56.7239C141.826 54.5727 140.034 52.7263 137.832 52.3839L137.831 52.3855Z" fill="url(#paint0_linear_2_41801)"/>
</g>
<defs>
<linearGradient id="paint0_linear_2_41801" x1="-0.0012207" y1="53.9194" x2="141.837" y2="53.9194" gradientUnits="userSpaceOnUse">
<stop stop-color="#D7AB07"/>
<stop offset="1" stop-color="#E86555"/>
</linearGradient>
<clipPath id="clip0_2_41801">
<rect width="440.805" height="107.841" fill="white"/>
</clipPath>
</defs>
</svg>
